<?xml version="1.0" encoding="UTF-8" standalone="no"?>
<!DOCTYPE svg PUBLIC "-//W3C//DTD SVG 1.1//EN"
 "http://www.w3.org/Graphics/SVG/1.1/DTD/svg11.dtd">
<!-- Generated by graphviz version 2.40.1 (20161225.0304)
 -->
<!-- Title: snakemake_dag Pages: 1 -->
<svg width="296pt" height="620pt"
 viewBox="0.00 0.00 295.50 620.00" xmlns="http://www.w3.org/2000/svg" xmlns:xlink="http://www.w3.org/1999/xlink">
<g id="graph0" class="graph" transform="scale(1 1) rotate(0) translate(4 616)">
<title>snakemake_dag</title>
<polygon fill="#ffffff" stroke="transparent" points="-4,4 -4,-616 291.5,-616 291.5,4 -4,4"/>
<!-- 0 -->
<g id="node1" class="node">
<title>0</title>
<path fill="none" stroke="#56a9d8" stroke-width="2" d="M197.5,-36C197.5,-36 167.5,-36 167.5,-36 161.5,-36 155.5,-30 155.5,-24 155.5,-24 155.5,-12 155.5,-12 155.5,-6 161.5,0 167.5,0 167.5,0 197.5,0 197.5,0 203.5,0 209.5,-6 209.5,-12 209.5,-12 209.5,-24 209.5,-24 209.5,-30 203.5,-36 197.5,-36"/>
<text text-anchor="middle" x="182.5" y="-15.5" font-family="sans" font-size="10.00" fill="#000000">all</text>
</g>
<!-- 1 -->
<g id="node2" class="node">
<title>1</title>
<path fill="none" stroke="#5682d8" stroke-width="2" d="M165.5,-108C165.5,-108 121.5,-108 121.5,-108 115.5,-108 109.5,-102 109.5,-96 109.5,-96 109.5,-84 109.5,-84 109.5,-78 115.5,-72 121.5,-72 121.5,-72 165.5,-72 165.5,-72 171.5,-72 177.5,-78 177.5,-84 177.5,-84 177.5,-96 177.5,-96 177.5,-102 171.5,-108 165.5,-108"/>
<text text-anchor="middle" x="143.5" y="-87.5" font-family="sans" font-size="10.00" fill="#000000">plot_results</text>
</g>
<!-- 1&#45;&gt;0 -->
<g id="edge1" class="edge">
<title>1&#45;&gt;0</title>
<path fill="none" stroke="#c0c0c0" stroke-width="2" d="M153.3413,-71.8314C157.6957,-63.7925 162.9098,-54.1666 167.7169,-45.2918"/>
<polygon fill="#c0c0c0" stroke="#c0c0c0" stroke-width="2" points="170.8408,-46.8732 172.5261,-36.4133 164.6857,-43.5392 170.8408,-46.8732"/>
</g>
<!-- 2 -->
<g id="node3" class="node">
<title>2</title>
<path fill="none" stroke="#d88556" stroke-width="2" d="M237.5,-108C237.5,-108 207.5,-108 207.5,-108 201.5,-108 195.5,-102 195.5,-96 195.5,-96 195.5,-84 195.5,-84 195.5,-78 201.5,-72 207.5,-72 207.5,-72 237.5,-72 237.5,-72 243.5,-72 249.5,-78 249.5,-84 249.5,-84 249.5,-96 249.5,-96 249.5,-102 243.5,-108 237.5,-108"/>
<text text-anchor="middle" x="222.5" y="-87.5" font-family="sans" font-size="10.00" fill="#000000">fastqc</text>
</g>
<!-- 2&#45;&gt;0 -->
<g id="edge2" class="edge">
<title>2&#45;&gt;0</title>
<path fill="none" stroke="#c0c0c0" stroke-width="2" d="M212.4063,-71.8314C207.9403,-63.7925 202.5925,-54.1666 197.6621,-45.2918"/>
<polygon fill="#c0c0c0" stroke="#c0c0c0" stroke-width="2" points="200.6456,-43.4551 192.7296,-36.4133 194.5265,-46.8546 200.6456,-43.4551"/>
</g>
<!-- 3 -->
<g id="node4" class="node">
<title>3</title>
<path fill="none" stroke="#56d882" stroke-width="2" d="M171.5,-180C171.5,-180 115.5,-180 115.5,-180 109.5,-180 103.5,-174 103.5,-168 103.5,-168 103.5,-156 103.5,-156 103.5,-150 109.5,-144 115.5,-144 115.5,-144 171.5,-144 171.5,-144 177.5,-144 183.5,-150 183.5,-156 183.5,-156 183.5,-168 183.5,-168 183.5,-174 177.5,-180 171.5,-180"/>
<text text-anchor="middle" x="143.5" y="-159.5" font-family="sans" font-size="10.00" fill="#000000">merge_results</text>
</g>
<!-- 3&#45;&gt;1 -->
<g id="edge3" class="edge">
<title>3&#45;&gt;1</title>
<path fill="none" stroke="#c0c0c0" stroke-width="2" d="M143.5,-143.8314C143.5,-136.131 143.5,-126.9743 143.5,-118.4166"/>
<polygon fill="#c0c0c0" stroke="#c0c0c0" stroke-width="2" points="147.0001,-118.4132 143.5,-108.4133 140.0001,-118.4133 147.0001,-118.4132"/>
</g>
<!-- 4 -->
<g id="node5" class="node">
<title>4</title>
<path fill="none" stroke="#56d8d8" stroke-width="2" d="M123,-252C123,-252 48,-252 48,-252 42,-252 36,-246 36,-240 36,-240 36,-228 36,-228 36,-222 42,-216 48,-216 48,-216 123,-216 123,-216 129,-216 135,-222 135,-228 135,-228 135,-240 135,-240 135,-246 129,-252 123,-252"/>
<text text-anchor="middle" x="85.5" y="-231.5" font-family="sans" font-size="10.00" fill="#000000">readcount_sample</text>
</g>
<!-- 4&#45;&gt;3 -->
<g id="edge4" class="edge">
<title>4&#45;&gt;3</title>
<path fill="none" stroke="#c0c0c0" stroke-width="2" d="M100.1358,-215.8314C106.8161,-207.5386 114.8568,-197.557 122.1904,-188.4533"/>
<polygon fill="#c0c0c0" stroke="#c0c0c0" stroke-width="2" points="125.1194,-190.3965 128.6671,-180.4133 119.6681,-186.0052 125.1194,-190.3965"/>
</g>
<!-- 5 -->
<g id="node6" class="node">
<title>5</title>
<path fill="none" stroke="#56d8d8" stroke-width="2" d="M240,-252C240,-252 165,-252 165,-252 159,-252 153,-246 153,-240 153,-240 153,-228 153,-228 153,-222 159,-216 165,-216 165,-216 240,-216 240,-216 246,-216 252,-222 252,-228 252,-228 252,-240 252,-240 252,-246 246,-252 240,-252"/>
<text text-anchor="middle" x="202.5" y="-231.5" font-family="sans" font-size="10.00" fill="#000000">readcount_sample</text>
</g>
<!-- 5&#45;&gt;3 -->
<g id="edge5" class="edge">
<title>5&#45;&gt;3</title>
<path fill="none" stroke="#c0c0c0" stroke-width="2" d="M187.6118,-215.8314C180.747,-207.454 172.4699,-197.3531 164.9489,-188.1749"/>
<polygon fill="#c0c0c0" stroke="#c0c0c0" stroke-width="2" points="167.6341,-185.9297 158.5886,-180.4133 162.2197,-190.3665 167.6341,-185.9297"/>
</g>
<!-- 6 -->
<g id="node7" class="node">
<title>6</title>
<path fill="none" stroke="#56d8a9" stroke-width="2" d="M121.5,-324C121.5,-324 49.5,-324 49.5,-324 43.5,-324 37.5,-318 37.5,-312 37.5,-312 37.5,-300 37.5,-300 37.5,-294 43.5,-288 49.5,-288 49.5,-288 121.5,-288 121.5,-288 127.5,-288 133.5,-294 133.5,-300 133.5,-300 133.5,-312 133.5,-312 133.5,-318 127.5,-324 121.5,-324"/>
<text text-anchor="middle" x="85.5" y="-303.5" font-family="sans" font-size="10.00" fill="#000000">samtools_idxstats</text>
</g>
<!-- 6&#45;&gt;4 -->
<g id="edge6" class="edge">
<title>6&#45;&gt;4</title>
<path fill="none" stroke="#c0c0c0" stroke-width="2" d="M85.5,-287.8314C85.5,-280.131 85.5,-270.9743 85.5,-262.4166"/>
<polygon fill="#c0c0c0" stroke="#c0c0c0" stroke-width="2" points="89.0001,-262.4132 85.5,-252.4133 82.0001,-262.4133 89.0001,-262.4132"/>
</g>
<!-- 7 -->
<g id="node8" class="node">
<title>7</title>
<path fill="none" stroke="#56d8a9" stroke-width="2" d="M238.5,-324C238.5,-324 166.5,-324 166.5,-324 160.5,-324 154.5,-318 154.5,-312 154.5,-312 154.5,-300 154.5,-300 154.5,-294 160.5,-288 166.5,-288 166.5,-288 238.5,-288 238.5,-288 244.5,-288 250.5,-294 250.5,-300 250.5,-300 250.5,-312 250.5,-312 250.5,-318 244.5,-324 238.5,-324"/>
<text text-anchor="middle" x="202.5" y="-303.5" font-family="sans" font-size="10.00" fill="#000000">samtools_idxstats</text>
</g>
<!-- 7&#45;&gt;5 -->
<g id="edge7" class="edge">
<title>7&#45;&gt;5</title>
<path fill="none" stroke="#c0c0c0" stroke-width="2" d="M202.5,-287.8314C202.5,-280.131 202.5,-270.9743 202.5,-262.4166"/>
<polygon fill="#c0c0c0" stroke="#c0c0c0" stroke-width="2" points="206.0001,-262.4132 202.5,-252.4133 199.0001,-262.4133 206.0001,-262.4132"/>
</g>
<!-- 8 -->
<g id="node9" class="node">
<title>8</title>
<path fill="none" stroke="#80d856" stroke-width="2" d="M113,-396C113,-396 58,-396 58,-396 52,-396 46,-390 46,-384 46,-384 46,-372 46,-372 46,-366 52,-360 58,-360 58,-360 113,-360 113,-360 119,-360 125,-366 125,-372 125,-372 125,-384 125,-384 125,-390 119,-396 113,-396"/>
<text text-anchor="middle" x="85.5" y="-375.5" font-family="sans" font-size="10.00" fill="#000000">samtools_sort</text>
</g>
<!-- 8&#45;&gt;6 -->
<g id="edge8" class="edge">
<title>8&#45;&gt;6</title>
<path fill="none" stroke="#c0c0c0" stroke-width="2" d="M85.5,-359.8314C85.5,-352.131 85.5,-342.9743 85.5,-334.4166"/>
<polygon fill="#c0c0c0" stroke="#c0c0c0" stroke-width="2" points="89.0001,-334.4132 85.5,-324.4133 82.0001,-334.4133 89.0001,-334.4132"/>
</g>
<!-- 9 -->
<g id="node10" class="node">
<title>9</title>
<path fill="none" stroke="#80d856" stroke-width="2" d="M230,-396C230,-396 175,-396 175,-396 169,-396 163,-390 163,-384 163,-384 163,-372 163,-372 163,-366 169,-360 175,-360 175,-360 230,-360 230,-360 236,-360 242,-366 242,-372 242,-372 242,-384 242,-384 242,-390 236,-396 230,-396"/>
<text text-anchor="middle" x="202.5" y="-375.5" font-family="sans" font-size="10.00" fill="#000000">samtools_sort</text>
</g>
<!-- 9&#45;&gt;7 -->
<g id="edge9" class="edge">
<title>9&#45;&gt;7</title>
<path fill="none" stroke="#c0c0c0" stroke-width="2" d="M202.5,-359.8314C202.5,-352.131 202.5,-342.9743 202.5,-334.4166"/>
<polygon fill="#c0c0c0" stroke="#c0c0c0" stroke-width="2" points="206.0001,-334.4132 202.5,-324.4133 199.0001,-334.4133 206.0001,-334.4132"/>
</g>
<!-- 10 -->
<g id="node11" class="node">
<title>10</title>
<path fill="none" stroke="#59d856" stroke-width="2" d="M122.5,-468C122.5,-468 48.5,-468 48.5,-468 42.5,-468 36.5,-462 36.5,-456 36.5,-456 36.5,-444 36.5,-444 36.5,-438 42.5,-432 48.5,-432 48.5,-432 122.5,-432 122.5,-432 128.5,-432 134.5,-438 134.5,-444 134.5,-444 134.5,-456 134.5,-456 134.5,-462 128.5,-468 122.5,-468"/>
<text text-anchor="middle" x="85.5" y="-447.5" font-family="sans" font-size="10.00" fill="#000000">samtools_mapped</text>
</g>
<!-- 10&#45;&gt;8 -->
<g id="edge10" class="edge">
<title>10&#45;&gt;8</title>
<path fill="none" stroke="#c0c0c0" stroke-width="2" d="M85.5,-431.8314C85.5,-424.131 85.5,-414.9743 85.5,-406.4166"/>
<polygon fill="#c0c0c0" stroke="#c0c0c0" stroke-width="2" points="89.0001,-406.4132 85.5,-396.4133 82.0001,-406.4133 89.0001,-406.4132"/>
</g>
<!-- 11 -->
<g id="node12" class="node">
<title>11</title>
<path fill="none" stroke="#59d856" stroke-width="2" d="M239.5,-468C239.5,-468 165.5,-468 165.5,-468 159.5,-468 153.5,-462 153.5,-456 153.5,-456 153.5,-444 153.5,-444 153.5,-438 159.5,-432 165.5,-432 165.5,-432 239.5,-432 239.5,-432 245.5,-432 251.5,-438 251.5,-444 251.5,-444 251.5,-456 251.5,-456 251.5,-462 245.5,-468 239.5,-468"/>
<text text-anchor="middle" x="202.5" y="-447.5" font-family="sans" font-size="10.00" fill="#000000">samtools_mapped</text>
</g>
<!-- 11&#45;&gt;9 -->
<g id="edge11" class="edge">
<title>11&#45;&gt;9</title>
<path fill="none" stroke="#c0c0c0" stroke-width="2" d="M202.5,-431.8314C202.5,-424.131 202.5,-414.9743 202.5,-406.4166"/>
<polygon fill="#c0c0c0" stroke="#c0c0c0" stroke-width="2" points="206.0001,-406.4132 202.5,-396.4133 199.0001,-406.4133 206.0001,-406.4132"/>
</g>
<!-- 12 -->
<g id="node13" class="node">
<title>12</title>
<path fill="none" stroke="#afd856" stroke-width="2" d="M103.5,-540C103.5,-540 67.5,-540 67.5,-540 61.5,-540 55.5,-534 55.5,-528 55.5,-528 55.5,-516 55.5,-516 55.5,-510 61.5,-504 67.5,-504 67.5,-504 103.5,-504 103.5,-504 109.5,-504 115.5,-510 115.5,-516 115.5,-516 115.5,-528 115.5,-528 115.5,-534 109.5,-540 103.5,-540"/>
<text text-anchor="middle" x="85.5" y="-519.5" font-family="sans" font-size="10.00" fill="#000000">bwa_map</text>
</g>
<!-- 12&#45;&gt;10 -->
<g id="edge12" class="edge">
<title>12&#45;&gt;10</title>
<path fill="none" stroke="#c0c0c0" stroke-width="2" d="M85.5,-503.8314C85.5,-496.131 85.5,-486.9743 85.5,-478.4166"/>
<polygon fill="#c0c0c0" stroke="#c0c0c0" stroke-width="2" points="89.0001,-478.4132 85.5,-468.4133 82.0001,-478.4133 89.0001,-478.4132"/>
</g>
<!-- 13 -->
<g id="node14" class="node">
<title>13</title>
<path fill="none" stroke="#afd856" stroke-width="2" d="M220.5,-540C220.5,-540 184.5,-540 184.5,-540 178.5,-540 172.5,-534 172.5,-528 172.5,-528 172.5,-516 172.5,-516 172.5,-510 178.5,-504 184.5,-504 184.5,-504 220.5,-504 220.5,-504 226.5,-504 232.5,-510 232.5,-516 232.5,-516 232.5,-528 232.5,-528 232.5,-534 226.5,-540 220.5,-540"/>
<text text-anchor="middle" x="202.5" y="-519.5" font-family="sans" font-size="10.00" fill="#000000">bwa_map</text>
</g>
<!-- 13&#45;&gt;11 -->
<g id="edge13" class="edge">
<title>13&#45;&gt;11</title>
<path fill="none" stroke="#c0c0c0" stroke-width="2" d="M202.5,-503.8314C202.5,-496.131 202.5,-486.9743 202.5,-478.4166"/>
<polygon fill="#c0c0c0" stroke="#c0c0c0" stroke-width="2" points="206.0001,-478.4132 202.5,-468.4133 199.0001,-478.4133 206.0001,-478.4132"/>
</g>
<!-- 14 -->
<g id="node15" class="node">
<title>14</title>
<path fill="none" stroke="#d6d856" stroke-width="2" d="M83,-612C83,-612 12,-612 12,-612 6,-612 0,-606 0,-600 0,-600 0,-588 0,-588 0,-582 6,-576 12,-576 12,-576 83,-576 83,-576 89,-576 95,-582 95,-588 95,-588 95,-600 95,-600 95,-606 89,-612 83,-612"/>
<text text-anchor="middle" x="47.5" y="-597" font-family="sans" font-size="10.00" fill="#000000">trim_galore</text>
<text text-anchor="middle" x="47.5" y="-586" font-family="sans" font-size="10.00" fill="#000000">sample: PWG269</text>
</g>
<!-- 14&#45;&gt;12 -->
<g id="edge14" class="edge">
<title>14&#45;&gt;12</title>
<path fill="none" stroke="#c0c0c0" stroke-width="2" d="M57.089,-575.8314C61.3317,-567.7925 66.4121,-558.1666 71.096,-549.2918"/>
<polygon fill="#c0c0c0" stroke="#c0c0c0" stroke-width="2" points="74.2096,-550.8908 75.7819,-540.4133 68.0189,-547.6235 74.2096,-550.8908"/>
</g>
<!-- 15 -->
<g id="node16" class="node">
<title>15</title>
<path fill="none" stroke="#d85656" stroke-width="2" d="M165.5,-612C165.5,-612 125.5,-612 125.5,-612 119.5,-612 113.5,-606 113.5,-600 113.5,-600 113.5,-588 113.5,-588 113.5,-582 119.5,-576 125.5,-576 125.5,-576 165.5,-576 165.5,-576 171.5,-576 177.5,-582 177.5,-588 177.5,-588 177.5,-600 177.5,-600 177.5,-606 171.5,-612 165.5,-612"/>
<text text-anchor="middle" x="145.5" y="-591.5" font-family="sans" font-size="10.00" fill="#000000">bwa_index</text>
</g>
<!-- 15&#45;&gt;12 -->
<g id="edge15" class="edge">
<title>15&#45;&gt;12</title>
<path fill="none" stroke="#c0c0c0" stroke-width="2" d="M130.3595,-575.8314C123.3783,-567.454 114.9609,-557.3531 107.3124,-548.1749"/>
<polygon fill="#c0c0c0" stroke="#c0c0c0" stroke-width="2" points="109.9351,-545.8548 100.8444,-540.4133 104.5575,-550.3362 109.9351,-545.8548"/>
</g>
<!-- 15&#45;&gt;13 -->
<g id="edge17" class="edge">
<title>15&#45;&gt;13</title>
<path fill="none" stroke="#c0c0c0" stroke-width="2" d="M159.8835,-575.8314C166.4486,-567.5386 174.3507,-557.557 181.5578,-548.4533"/>
<polygon fill="#c0c0c0" stroke="#c0c0c0" stroke-width="2" points="184.4599,-550.4262 187.9228,-540.4133 178.9716,-546.0813 184.4599,-550.4262"/>
</g>
<!-- 16 -->
<g id="node17" class="node">
<title>16</title>
<path fill="none" stroke="#d6d856" stroke-width="2" d="M275.5,-612C275.5,-612 207.5,-612 207.5,-612 201.5,-612 195.5,-606 195.5,-600 195.5,-600 195.5,-588 195.5,-588 195.5,-582 201.5,-576 207.5,-576 207.5,-576 275.5,-576 275.5,-576 281.5,-576 287.5,-582 287.5,-588 287.5,-588 287.5,-600 287.5,-600 287.5,-606 281.5,-612 275.5,-612"/>
<text text-anchor="middle" x="241.5" y="-597" font-family="sans" font-size="10.00" fill="#000000">trim_galore</text>
<text text-anchor="middle" x="241.5" y="-586" font-family="sans" font-size="10.00" fill="#000000">sample: ZQV658</text>
</g>
<!-- 16&#45;&gt;13 -->
<g id="edge16" class="edge">
<title>16&#45;&gt;13</title>
<path fill="none" stroke="#c0c0c0" stroke-width="2" d="M231.6587,-575.8314C227.3043,-567.7925 222.0902,-558.1666 217.2831,-549.2918"/>
<polygon fill="#c0c0c0" stroke="#c0c0c0" stroke-width="2" points="220.3143,-547.5392 212.4739,-540.4133 214.1592,-550.8732 220.3143,-547.5392"/>
</g>
</g>
</svg>
